<svg width="128" height="51" viewBox="0 0 128 51" fill="none" xmlns="http://www.w3.org/2000/svg">
<path fill-rule="evenodd" clip-rule="evenodd" d="M117.459 37.1703V32.8296C120.416 32.7501 123.373 32.7181 126.346 32.6705L124.248 35.071L127.364 37.3919C125.853 37.3613 124.407 37.2654 122.944 37.2342C121.115 37.2022 119.287 37.1866 117.459 37.1703V37.1703ZM117.459 30.4774V26.9797C117.826 26.6928 118.143 26.4073 118.302 26.2319C118.461 26.0565 120.607 23.4181 119.383 23.3862C118.986 23.3706 118.223 23.7519 117.459 24.2924V22.7662C118.079 22.4637 118.731 22.2094 119.351 21.8913C119.67 21.7322 120.019 21.6051 120.274 21.3508C120.463 21.1598 120.575 20.9055 120.639 20.6356C120.703 20.3807 120.718 20.1108 120.639 19.8722C120.591 19.6812 120.448 19.5065 120.274 19.4426C120.098 19.363 119.892 19.4269 119.732 19.4901C119.127 19.7444 118.587 20.1265 117.983 20.3807C117.809 20.4602 117.634 20.5241 117.459 20.6037V19.2998C117.507 19.2842 117.555 19.2522 117.618 19.2366C118.307 18.9347 118.981 18.6005 119.638 18.2352C119.924 18.0761 120.194 17.9007 120.384 17.6628C120.56 17.4405 120.655 17.1699 120.703 16.8837C120.783 16.4541 120.639 15.9931 120.767 15.5642C120.973 14.8014 121.212 14.0067 121.641 13.3384C122.043 12.748 122.577 12.2585 123.2 11.9081C123.581 11.6851 124.105 11.5111 124.534 11.6532C124.98 11.781 125.425 12.178 125.505 12.6233C125.648 13.3072 125.393 14.0223 125.138 14.658C124.917 15.2147 124.472 15.6757 124.074 16.1366C123.724 16.5662 123.326 16.9476 122.929 17.3446C122.833 17.4561 122.674 17.5037 122.596 17.6308C122.468 17.8375 122.341 18.0761 122.341 18.3147C122.277 19.4752 122.341 20.6363 122.357 21.7805C122.389 22.7342 122.564 23.688 122.484 24.6418C122.405 25.4209 122.245 26.2 121.912 26.9151C121.561 27.631 121.085 28.2986 120.497 28.839C119.909 29.3951 119.193 29.8404 118.446 30.1586C118.127 30.2857 117.794 30.3972 117.459 30.4774V30.4774ZM117.459 19.3005V20.6044C116.57 20.9653 115.675 21.3098 114.773 21.6377C114.169 21.86 113.549 22.0354 112.945 22.2421C112.658 22.3535 112.357 22.4644 112.07 22.5759C112.086 24.2611 112.006 26.0089 111.291 27.5521C110.386 29.4924 108.923 30.6841 107.016 31.1131V27.4407C107.307 27.2279 107.579 26.9883 107.825 26.7248C107.984 26.5671 110.036 24.0381 108.859 24.0225C108.493 24.0069 107.761 24.3726 107.015 24.8811V23.4821C107.651 23.1802 108.302 22.9096 109.049 22.5283C109.368 22.3692 109.717 22.2264 109.972 21.9878C110.161 21.7968 110.321 21.5425 110.337 21.2726C110.369 20.8593 110.178 20.0483 109.541 20.446C109.208 20.6526 108.937 20.9701 108.62 21.2094C108.096 21.6064 107.571 22.0041 107.015 22.3699V20.9076C107.366 20.6671 107.71 20.418 108.048 20.1604C108.78 19.588 109.494 19 110.114 18.3161C110.624 17.7756 110.29 16.8538 110.449 16.2018C110.655 15.4228 110.893 14.6437 111.339 13.9761C111.741 13.3857 112.275 12.896 112.898 12.5451C113.279 12.3065 113.803 12.1481 114.233 12.2752C114.678 12.4186 115.123 12.8 115.203 13.2609C115.346 13.9285 115.091 14.6437 114.838 15.28C114.615 15.8524 114.17 16.2977 113.772 16.7743C113.422 17.2032 113.025 17.5853 112.627 17.983C112.531 18.0781 112.373 18.1414 112.294 18.2685C112.166 18.4758 112.039 18.7138 112.039 18.9524C111.991 19.6839 112.007 20.431 112.023 21.1618C112.866 20.9395 113.74 20.7329 114.583 20.4466C115.551 20.1115 116.505 19.7138 117.459 19.3005V19.3005ZM117.459 22.7669C117.19 22.894 116.919 23.0211 116.664 23.1802C115.894 23.6611 115.185 24.2321 114.55 24.8811C114.081 25.33 113.694 25.8573 113.405 26.4393C113.131 26.9912 112.964 27.59 112.913 28.2041C112.881 28.6487 112.928 29.1252 113.182 29.4924C113.469 29.9213 113.93 30.2544 114.406 30.4455C114.947 30.6528 115.551 30.716 116.123 30.6684C116.572 30.6359 117.018 30.5721 117.458 30.4774V26.9797C116.727 27.5202 115.805 28.0131 115.345 27.5521C114.629 26.7887 116.044 25.2788 117.458 24.2931V22.7669H117.459ZM117.459 32.8296V37.1703H114.121C111.753 37.1859 109.384 37.1859 107.015 37.2178V33.2742C109.956 33.1165 112.897 32.9887 115.838 32.8772L117.459 32.8296ZM107.014 20.9062V22.3685C106.871 22.4637 106.727 22.5595 106.584 22.6384C106.06 22.9722 105.503 23.306 104.899 23.529C104.071 23.8471 103.198 24.0694 102.323 24.2441C102.037 24.308 101.751 24.3719 101.417 24.4032C100.526 25.7384 99.637 27.0905 98.6342 28.2986C98.2082 28.8126 97.7519 29.3006 97.2678 29.7602V27.8057C98.3272 26.6856 99.255 25.448 100.033 24.117C99.6237 23.8595 99.3108 23.4737 99.1434 23.0198C98.9843 22.5589 98.9524 22.0347 99 21.5575C99.0639 21.0327 99.2073 20.5241 99.4289 20.0625C99.7314 19.4901 100.033 18.8701 100.557 18.4888C101.05 18.123 101.702 17.8368 102.322 17.9164C102.8 17.9803 103.165 18.4412 103.42 18.8701C103.626 19.2202 103.626 19.6812 103.578 20.0945C103.546 20.4766 103.34 20.826 103.213 21.1754C103.085 21.5092 102.848 21.8111 102.816 22.1612C102.784 22.3359 102.862 22.6064 103.037 22.6703C103.34 22.7662 103.689 22.6547 103.992 22.5589C104.556 22.3652 105.1 22.1147 105.613 21.8111C106.09 21.5251 106.558 21.2234 107.014 20.9062V20.9062ZM107.014 23.4821C105.98 23.9586 105.043 24.4678 104.01 25.5004C103.103 26.3917 102.466 27.5358 102.371 28.8397C102.292 29.9526 102.849 30.6678 103.866 31.0648C104.407 31.2878 105.248 31.3354 105.822 31.3041C106.224 31.2737 106.623 31.2098 107.014 31.1131V27.4407C106.33 27.9648 105.44 28.442 105.011 27.9967C104.311 27.2653 105.679 25.803 107.014 24.8811V23.4821V23.4821ZM107.014 33.2749V37.2185C105.234 37.2342 103.453 37.2505 101.673 37.2981C100.21 37.33 98.7307 37.3776 97.2684 37.4245V33.9112C99.5894 33.7372 101.927 33.5781 104.247 33.4346C105.17 33.3864 106.092 33.3225 107.014 33.2749V33.2749ZM97.2684 21.0816C97.7553 20.664 98.2269 20.2291 98.6825 19.7777L97.2684 19.9055V21.0816ZM97.2684 14.0223V11.9713C97.8349 11.4026 98.3809 10.814 98.9055 10.2065C99.4961 9.52656 100.043 8.80971 100.542 8.0603C100.925 7.45594 101.274 6.8203 101.513 6.15272C101.655 5.77134 101.735 5.35801 101.672 4.96031C101.643 4.82785 101.584 4.70411 101.498 4.5992C101.412 4.49428 101.302 4.41117 101.178 4.35663C100.925 4.26078 100.59 4.34031 100.368 4.48375C99.796 4.81755 99.3181 5.29479 98.8735 5.78766C98.313 6.3962 97.7775 7.02738 97.2684 7.6796V5.34237C99.2868 3.17986 102.165 0.525157 104.057 0.747459C104.708 0.826998 105.218 1.65366 105.265 2.30561C105.439 4.70606 102.721 8.23569 101.306 9.96856C100.13 11.3833 98.7144 12.7348 97.2684 14.0223V14.0223ZM54.3595 27.5678C55.1862 26.8519 56.1563 26.2 56.9822 26.2319C57.73 26.2476 58.1114 27.1708 57.9524 27.8064C57.7604 28.5659 57.4718 29.2977 57.0937 29.9839C56.5816 30.8732 55.9682 31.7001 55.2657 32.4482C54.9802 32.7461 54.6776 33.0271 54.3595 33.2898V34.9602C54.5342 34.8167 54.7096 34.6576 54.9 34.5298C55.4404 35.2776 56.0611 35.8657 56.951 35.9133C57.4914 35.9609 58.0319 35.7222 58.5248 35.4843C59.2562 35.1498 59.9238 34.6889 60.5914 34.2443C61.7199 33.4965 62.8172 32.7174 63.8981 31.9859L62.5146 35.1342L66.1245 34.7372C67.3488 33.0043 68.5093 31.4135 69.9553 29.8404C71.1953 28.4889 72.5631 27.0749 73.9941 25.9457C74.4706 25.5793 75.249 25.2775 74.7881 26.2313C74.2796 27.2646 73.5318 28.1715 72.9914 29.1885C72.5468 30.0478 71.3543 31.8282 71.6718 33.0526C71.8792 33.816 72.6263 34.1974 73.4686 34.1974C74.1844 34.213 74.852 33.831 75.504 33.5298C77.4442 32.6087 79.0492 31.2728 80.7821 29.9689C79.9356 31.98 78.8917 33.9022 77.6658 35.7073C75.3449 35.9466 72.9764 36.1852 70.6072 36.4388C67.7615 36.7576 64.9164 37.0431 62.102 37.4401C59.5105 37.7909 56.9353 38.2192 54.3595 38.6326V40.4925C56.9822 40.1914 59.622 39.8882 62.2611 39.6509C65.9334 39.3165 69.6378 39.0785 73.3421 38.8236C74.1838 38.7597 75.0431 38.744 75.869 38.7277L72.1021 45.5803L76.315 45.2615L80.2097 38.4742C83.549 38.2192 86.9352 37.9181 90.3363 37.7264C92.643 37.5985 94.9639 37.5034 97.2684 37.4238V33.9105C96.1875 33.9901 95.0896 34.0859 94.0087 34.1654C90.0664 34.4829 86.1228 34.865 82.101 35.23L88.7782 22.5915L92.5621 22.0673C92.0678 22.6873 91.4961 23.2591 91.0352 23.8954C90.3356 24.8492 89.5735 25.7717 89.0637 26.8526C88.7306 27.5685 88.5076 28.3795 88.5552 29.1735C88.683 31.3829 89.6361 32.1783 91.8149 32.2898C92.6566 32.3374 93.5002 32.0668 94.2793 31.7494C95.4078 31.2884 96.3928 30.5889 97.2678 29.7616V27.8071C96.5519 28.5535 95.7728 29.2055 95.0264 29.6344C93.9441 30.2707 92.403 29.9533 92.403 28.5698C92.3873 26.6296 94.1195 24.3094 95.3602 22.926C95.9482 22.2747 96.6002 21.686 97.2684 21.0823V19.9062L90.2262 20.4786C90.2405 20.3195 90.2581 20.1604 90.3363 20.0177C90.5118 19.7254 90.7258 19.4581 90.9726 19.223C92.0855 18.2053 93.3731 17.363 94.5179 16.3772C95.4091 15.6138 96.3459 14.8347 97.2691 14.0244V11.9734L96.8871 12.3554C96.0291 13.1821 95.1705 14.0094 94.2806 14.7722C93.9299 15.074 93.3894 15.4554 92.8496 15.7736C92.9291 15.2175 93.3105 14.4221 93.6131 13.8021C94.1216 12.7844 94.6777 11.7986 95.2501 10.8136C95.7266 9.97128 96.2208 9.11266 96.7933 8.33359C96.951 8.1106 97.1107 7.8883 97.2698 7.68164V5.34441C96.6165 6.04961 95.9802 6.77043 95.3616 7.50625C94.2011 8.90532 93.1046 10.3839 92.0699 11.8782C90.8938 13.5315 89.8285 15.2487 88.7319 16.9653C87.857 18.3004 87.0154 19.6683 86.1405 21.0191L82.755 21.3372L81.2437 23.8335L84.6306 23.7057C83.6278 25.2163 82.7067 26.2013 81.3708 27.442C80.0826 28.6344 78.7168 29.8268 77.2532 30.8119C76.5054 31.3061 75.7276 31.3693 76.2518 30.2714C76.6012 29.5413 77.0458 28.8574 77.4761 28.1579C78.2702 26.8064 79.8929 25.0259 79.7971 23.3407C79.7331 22.2917 79.1607 21.7988 78.1437 21.7349C76.8398 21.6554 75.9486 22.4344 74.9635 23.1979C73.7874 24.1197 72.6902 25.1374 71.4978 25.979L73.1667 22.5296L69.5419 22.7839C68.5086 24.6282 67.1571 26.3135 65.7737 27.9029C64.8362 28.9852 63.8818 30.0342 62.8491 30.9873C62.2923 31.4958 60.3052 33.1967 59.4942 33.1661C58.9061 33.1505 59.4942 32.0362 59.59 31.8778L64.55 23.7057L60.4167 24.2305L59.2556 25.7411C58.5084 24.8981 58.1903 24.4848 56.8708 24.4848C56.0441 24.4848 55.1855 24.6915 54.3588 24.994V27.5678H54.3595V27.5678ZM51.577 34.7698C49.1922 34.4034 52.4512 29.6195 53.0875 28.8717C53.4858 28.4127 53.9105 27.9773 54.3595 27.5678V24.9919C53.4951 25.316 52.6729 25.743 51.9108 26.2639C50.9726 26.8839 50.1303 27.6317 49.3669 28.4414C48.7149 29.1253 48.1745 29.8091 47.7292 30.5243C47.2051 30.5563 46.6959 30.5882 46.1867 30.6039C45.6938 30.6195 45.2009 30.6039 44.7244 30.6039C46.5687 27.2326 48.8577 23.5446 48.7782 19.586C48.6823 15.055 47.0133 12.8299 43.1343 10.6994L46.0759 6.00928L39.1764 6.86789L38.0152 8.75983C37.4272 8.69593 36.8391 8.64835 36.2511 8.60076V21.1761L40.003 15.4207C42.3083 16.2154 43.8508 17.0741 44.2954 21.0646C44.7088 24.769 42.483 28.4407 40.4639 31.3816C39.0812 31.525 37.6658 31.6521 36.2511 31.8595V33.9574C37.1886 33.8153 38.1267 33.6563 39.0649 33.4965C38.1111 34.5774 37.3157 35.7855 36.2667 36.7399C36.2667 36.7556 36.2667 36.7556 36.2511 36.7556V39.3301C38.6835 37.2641 40.9888 35.1172 43.2145 32.6848C43.6435 32.6209 44.0568 32.5427 44.4545 32.4951C44.8545 32.4298 45.2578 32.3872 45.6625 32.3673C46.0596 32.3354 46.4573 32.3354 46.8549 32.3354C46.7122 32.7167 46.6007 33.0988 46.5048 33.5278C45.9963 35.5951 46.8869 37.3117 49.0005 37.4537C51.0834 37.5972 52.8 36.1988 54.3581 34.9588V33.2885C53.4689 34.0383 52.2446 34.8813 51.577 34.7698V34.7698ZM54.3595 38.6326V40.4925C53.5648 40.5721 52.7694 40.6679 51.9747 40.7631C48.668 41.1601 45.377 41.6061 42.0704 42.0351C41.2117 42.1466 40.3531 42.3845 39.4945 42.3845C39.3354 42.3845 39.1764 42.1948 39.1764 42.0351C39.1607 41.8277 39.3035 41.6211 39.4463 41.479C39.6373 41.2879 39.8596 41.1445 40.1138 41.0806C42.3878 40.5877 44.6605 40.207 46.9501 39.8086C49.2717 39.4116 51.5926 39.0622 53.9298 38.6958C54.0733 38.6801 54.216 38.6638 54.3595 38.6326ZM36.2511 8.60144V21.1768L28.1748 33.5618C29.3672 33.3388 30.5433 33.0213 31.7357 32.7664C33.1511 32.4489 34.5821 32.1301 36.0281 31.9084C36.0913 31.8928 36.1709 31.8765 36.2511 31.8609V33.9588C34.8996 34.1818 33.5481 34.4034 32.213 34.7222C30.1143 35.2307 28.0953 35.8031 25.996 36.6305L21.9266 42.8155C20.7818 44.564 19.0169 43.944 19.5098 43.0052L22.1013 37.9983C20.9565 38.4429 19.7797 38.8399 18.6668 39.3804C16.3935 40.5089 12.8319 42.1472 11.6239 44.5321C11.2901 45.1684 11.322 46.2173 11.8625 46.6776C12.594 47.2976 13.7225 47.1861 14.677 47.1704C17.7457 47.0909 21.4181 46.1058 24.1843 44.8332C28.6677 42.7978 32.6419 40.0799 36.2511 36.7576V39.3321C35.9962 39.5551 35.7263 39.7781 35.472 39.9997C31.2748 43.481 26.7118 46.1364 21.6084 48.0923C17.6179 49.6022 13.1664 50.8102 8.85837 50.7307C7.237 50.6987 3.35726 49.8727 3.83449 47.4723C4.64484 43.3866 8.9855 41.2397 11.9903 39.6346C15.8055 37.5673 19.7328 36.3592 23.7866 35.0247L34.9152 14.3561C33.389 14.0699 31.8628 13.8952 30.321 13.9591C24.8838 14.1338 19.9082 15.1039 14.7409 16.8368C9.51032 18.5853 5.04254 20.9388 0.209686 23.514L0.177734 23.4345L5.75771 13.2915C12.1487 11.161 18.1583 9.22144 24.8675 8.48995C28.8111 8.07662 32.4359 8.26765 36.2511 8.60144V8.60144Z" fill="#F40C0C"/>
</svg>
