<svg width="133" height="50" viewBox="0 0 133 50" fill="none" xmlns="http://www.w3.org/2000/svg">
<path fill-rule="evenodd" clip-rule="evenodd" d="M44.4081 38.4623V49.7911H36.7295V22.7126H50.3601C53.6566 22.7126 54.8338 25.9043 54.8338 27.7095V33.3607C54.8338 34.852 53.6566 35.7937 52.7932 35.9507C54.9123 36.3433 54.9907 37.7561 54.9907 39.2473V49.6862H47.2205V40.2678C47.2205 38.6194 46.4356 38.3839 45.1799 38.3839L44.4081 38.4623ZM44.4081 27.3692V33.8315C44.4081 33.8315 44.7874 33.91 45.5724 33.8315C46.3571 33.753 47.2205 32.4189 47.1421 30.5351C47.0635 28.6514 46.671 27.3692 45.8862 27.3692H44.4081Z" fill="#636466"/>
<path fill-rule="evenodd" clip-rule="evenodd" d="M83.3268 22.7126V33.91H80.4882V22.7126H72.8096V49.7911H80.4882V38.4623H83.3268V49.7911H91.0054V22.7126H83.3268Z" fill="#636466"/>
<path fill-rule="evenodd" clip-rule="evenodd" d="M96.9884 22.7126H111.901V49.7911H104.223V38.4623H101.384V49.7911H93.7051V27.3956C93.7051 25.9828 94.102 22.7126 96.9884 22.7126ZM101.384 29.5933V33.91H104.223V27.5525C104.223 27.5525 101.384 26.6891 101.384 29.5933Z" fill="#636466"/>
<path fill-rule="evenodd" clip-rule="evenodd" d="M70.3403 45.2123H65.3037V38.4623H70.3403V33.91H65.3037V27.2651H70.3403V22.7126H57.625V49.7911H65.3037V49.7646H70.3403V45.2123Z" fill="#636466"/>
<path fill-rule="evenodd" clip-rule="evenodd" d="M114.73 43.7211V22.7126H122.409V43.3288C122.409 43.3288 122.252 45.5262 123.822 45.5262C125.391 45.5262 125.234 43.3288 125.234 43.3288V22.7126H132.913V43.7211C132.913 49.6078 130.258 50 123.822 50C117.386 50 114.73 49.4509 114.73 43.7211ZM126.869 26.0173C126.869 27.2655 127.867 28.2006 129.058 28.2006C130.242 28.2006 131.234 27.2655 131.234 26.0173C131.234 24.7923 130.242 23.858 129.058 23.858C127.867 23.858 126.869 24.7923 126.869 26.0173ZM127.263 26.0173C127.263 24.9781 128.042 24.177 129.058 24.177C130.061 24.177 130.839 24.9781 130.839 26.0173C130.839 27.0803 130.061 27.8817 129.058 27.8817C128.042 27.8817 127.263 27.0803 127.263 26.0173ZM128.21 27.2951H128.604V26.2032H129.022L129.713 27.2951H130.138L129.412 26.1743C129.789 26.1336 130.079 25.942 130.079 25.4835C130.079 24.9957 129.795 24.7577 129.19 24.7577H128.21V27.2951ZM128.604 25.0767H129.127C129.394 25.0767 129.684 25.1296 129.684 25.4661C129.684 25.8666 129.366 25.8842 129.017 25.8842H128.604V25.0767Z" fill="#636466"/>
<path fill-rule="evenodd" clip-rule="evenodd" d="M6.87891 26.4726C16.0864 34.6789 28.3516 27.8214 28.2292 18.2351C21.9267 23.4738 15.0828 26.4438 6.87891 26.4726Z" fill="#EC008C"/>
<path fill-rule="evenodd" clip-rule="evenodd" d="M9.60958 2.85522C-2.17597 6.4916 -2.65003 20.5353 5.61787 25.3887C4.39341 17.2849 5.39139 9.89171 9.60958 2.85522Z" fill="#A6CE38"/>
<path fill-rule="evenodd" clip-rule="evenodd" d="M29.3563 15.929C31.8625 3.85268 19.793 -3.34343 11.5508 1.55301C19.2386 4.39382 25.2311 8.83743 29.3563 15.929Z" fill="#BBBDC0"/>
</svg>
