<svg width="139" height="20" viewBox="0 0 139 20" fill="none" xmlns="http://www.w3.org/2000/svg">
<path fill-rule="evenodd" clip-rule="evenodd" d="M39.8868 12.4891V16.7502C39.8884 17.8963 39.6192 18.3791 39.0244 18.8707C38.1007 19.634 36.3091 19.9572 34.2482 19.9572C32.1874 19.9572 30.461 19.6348 29.5366 18.8707C28.9434 18.3799 28.6597 17.8963 28.6597 16.7502V12.4891H32.5106V16.4891C32.5106 17.8762 33.1223 18.3106 34.2845 18.3106C35.4491 18.3106 36.0536 17.8762 36.0528 16.4891V12.4891H39.8868ZM50.274 19.746L44.8168 16.0676V19.746H42.5392V12.4891H45.8267L51.2815 16.203V12.4891H53.5462V19.746H50.274ZM60.2478 14.1357H62.008C63.7538 14.1357 64.7451 14.5766 64.7451 16.1176C64.7451 17.5562 63.7538 18.0978 62.008 18.0978H60.2494L60.2478 14.1357ZM56.4195 12.4891V19.746H62.403C66.7624 19.746 68.7886 18.9683 68.7886 16.1006C68.7886 13.233 66.7624 12.4899 62.4005 12.4899H56.4195V12.4891ZM91.5764 16.1176C91.5764 17.7214 90.7672 18.3041 88.9159 18.3041C87.2661 18.3041 86.2796 17.7214 86.2796 16.1176C86.2796 14.5056 87.2669 13.9342 88.9151 13.9342C90.6004 13.9342 91.5764 14.5056 91.5764 16.1176ZM95.7586 16.0692C95.7586 13.7335 93.6711 12.2739 88.9474 12.2739C84.1648 12.2739 82.1015 13.719 82.1015 16.0789C82.1015 18.695 84.1656 19.9604 88.9474 19.9604C93.6711 19.9604 95.7586 18.6886 95.7586 16.0692ZM20.3244 16.2376L22.7084 19.7468H26.914L24.4663 16.6019C24.8596 16.5576 26.4409 16.4351 26.4409 14.5524C26.4409 12.5028 23.9786 12.4899 22.3941 12.4899H15.2525V19.7468H19.0542L19.0558 13.9946H20.8201C21.6704 13.9946 22.4465 14.1534 22.4465 15.015C22.4473 15.9693 22.1088 16.2376 20.3244 16.2376ZM75.0445 14.2252H80.2583L81.3463 12.4891H71.142V19.746H75.0445V17.6368H79.2839L80.3727 15.9064H75.0445V14.2252ZM0.177734 16.207C0.177734 18.8594 2.32966 19.9201 7.07275 19.9201C9.1328 19.9201 11.0776 19.7879 12.6395 19.4986V16.1313H8.81444V18.1494C8.35802 18.2092 7.89818 18.2391 7.43786 18.2389C4.77173 18.2389 4.26316 17.2661 4.26316 16.1659C4.26316 15.1093 4.87247 14.047 7.70946 14.047C9.26578 14.047 10.216 14.1365 11.6192 14.3759L12.7032 12.6503C10.8426 12.4208 8.96917 12.3115 7.09451 12.3231C2.37076 12.3239 0.177734 13.5659 0.177734 16.207ZM97.2069 19.7541C98.8849 19.9008 99.6151 19.9999 102.675 19.9999C107.118 19.9999 109.068 19.3608 109.068 17.5788C109.068 15.9967 106.92 15.6187 104.916 15.3213C103.261 15.0754 102.288 15.0819 102.288 14.4097C102.288 13.7375 104 13.7706 105.106 13.7706C105.681 13.7706 107.032 13.8431 107.916 14.018L108.859 12.4867C108.122 12.4045 106.139 12.2393 103.924 12.2393C99.9367 12.2393 97.5075 12.8091 97.5075 14.3896C97.5075 16.0644 99.6329 16.2973 101.704 16.6092C103.377 16.8607 104.276 16.847 104.276 17.503C104.276 18.2429 102.808 18.284 101.326 18.284C100.698 18.284 99.3919 18.2115 98.3054 17.9648L97.2069 19.7541ZM125.683 12.4166C126.007 12.6245 126.577 13.1468 127.034 13.6038C127.464 14.0333 128.013 14.6048 128.253 14.9546L123.461 19.7476H118.353L125.683 12.4166Z" fill="#15548B"/>
<path fill-rule="evenodd" clip-rule="evenodd" d="M138.105 0V5.10659L130.431 12.781C130.028 12.3482 129.645 11.9549 129.225 11.5438C124.882 7.26979 120.426 4.76244 119.235 5.9327C118.312 6.84264 119.663 9.67157 122.187 12.7592L121.132 13.8094C119.197 11.4939 117.708 9.13802 116.93 7.15293C116.327 5.61435 115.931 3.69212 116.924 2.69837C117.814 1.80778 119.617 1.89805 121.996 2.96353C124.407 4.04352 127.165 6.0004 129.71 8.39331L138.105 0ZM133.801 12.6738C135.555 14.7499 137.438 17.7191 138.107 19.7477H135.273C134.654 18.156 133.126 15.8348 131.897 14.5751L133.801 12.6738Z" fill="#15548B"/>
</svg>
