<svg width="108" height="20" viewBox="0 0 108 20" fill="none" xmlns="http://www.w3.org/2000/svg">
<path d="M10.4149 1.2854C10.3857 1.20225 10.3299 1.12996 10.2555 1.07876C10.181 1.02755 10.0917 1 10 1C9.90832 1 9.81896 1.02755 9.74452 1.07876C9.67009 1.12996 9.61434 1.20225 9.58515 1.2854C9.06732 2.77081 7.89581 4.06102 6.65552 5.42686C4.85852 7.40612 3 9.45283 3 12.302C3 14.0785 3.7375 15.7821 5.05025 17.0382C6.36301 18.2943 8.14348 19 10 19C11.8565 19 13.637 18.2943 14.9497 17.0382C16.2625 15.7821 17 14.0785 17 12.302C17 7.49321 11.692 4.94905 10.4149 1.2854Z" fill="#117CFB"/>
<path d="M32.4149 1.2854C32.3857 1.20225 32.3299 1.12996 32.2555 1.07876C32.181 1.02755 32.0917 1 32 1C31.9083 1 31.819 1.02755 31.7445 1.07876C31.6701 1.12996 31.6143 1.20225 31.5851 1.2854C31.0673 2.77081 29.8958 4.06102 28.6555 5.42686C26.8585 7.40612 25 9.45283 25 12.302C25 14.0785 25.7375 15.7821 27.0503 17.0382C28.363 18.2943 30.1435 19 32 19C33.8565 19 35.637 18.2943 36.9497 17.0382C38.2625 15.7821 39 14.0785 39 12.302C39 7.49321 33.692 4.94905 32.4149 1.2854Z" fill="#117CFB"/>
<path d="M54.4149 1.2854C54.3857 1.20225 54.3299 1.12996 54.2555 1.07876C54.181 1.02755 54.0917 1 54 1C53.9083 1 53.819 1.02755 53.7445 1.07876C53.6701 1.12996 53.6143 1.20225 53.5851 1.2854C53.0673 2.77081 51.8958 4.06102 50.6555 5.42686C48.8585 7.40612 47 9.45283 47 12.302C47 14.0785 47.7375 15.7821 49.0503 17.0382C50.363 18.2943 52.1435 19 54 19C55.8565 19 57.637 18.2943 58.9497 17.0382C60.2625 15.7821 61 14.0785 61 12.302C61 7.49321 55.692 4.94905 54.4149 1.2854Z" fill="#117CFB"/>
<path d="M76.4149 1.2854C76.3857 1.20225 76.3299 1.12996 76.2555 1.07876C76.181 1.02755 76.0917 1 76 1C75.9083 1 75.819 1.02755 75.7445 1.07876C75.6701 1.12996 75.6143 1.20225 75.5851 1.2854C75.0673 2.77081 73.8958 4.06102 72.6555 5.42686C70.8585 7.40612 69 9.45283 69 12.302C69 14.0785 69.7375 15.7821 71.0503 17.0382C72.363 18.2943 74.1435 19 76 19C77.8565 19 79.637 18.2943 80.9497 17.0382C82.2625 15.7821 83 14.0785 83 12.302C83 7.49321 77.692 4.94905 76.4149 1.2854Z" fill="#117CFB"/>
<path d="M98.4149 1.2854C98.3857 1.20225 98.3299 1.12996 98.2555 1.07876C98.181 1.02755 98.0917 1 98 1C97.9083 1 97.819 1.02755 97.7445 1.07876C97.6701 1.12996 97.6143 1.20225 97.5851 1.2854C97.0673 2.77081 95.8958 4.06102 94.6555 5.42686C92.8585 7.40612 91 9.45283 91 12.302C91 14.0785 91.7375 15.7821 93.0503 17.0382C94.363 18.2943 96.1435 19 98 19C99.8565 19 101.637 18.2943 102.95 17.0382C104.263 15.7821 105 14.0785 105 12.302C105 7.49321 99.692 4.94905 98.4149 1.2854Z" fill="#117CFB"/>
</svg>
