<svg width="108" height="20" viewBox="0 0 108 20" fill="none" xmlns="http://www.w3.org/2000/svg">
<path d="M7.06746 5.71698C8.23536 4.43099 9.42388 3.12229 10 1.60717C10.3553 2.54171 10.9403 3.39066 11.5954 4.19247C12.0262 4.71976 12.5102 5.25244 12.9895 5.77998C13.2686 6.08707 13.546 6.39243 13.8105 6.69396C15.2881 8.3788 16.5 10.095 16.5 12.302C16.5 13.9385 15.8208 15.5127 14.6041 16.677C13.3866 17.8419 11.7308 18.5 10 18.5C8.26915 18.5 6.61339 17.8419 5.39593 16.677C4.17921 15.5127 3.5 13.9385 3.5 12.302C3.5 9.677 5.20264 7.77093 7.02567 5.76299C7.02568 5.76298 7.02569 5.76297 7.02571 5.76296L7.06746 5.71698Z" stroke="#117CFB"/>
<path d="M29.0675 5.71698C30.2354 4.43099 31.4239 3.12229 32 1.60717C32.3553 2.54171 32.9403 3.39066 33.5954 4.19247C34.0262 4.71976 34.5102 5.25244 34.9895 5.77998C35.2686 6.08707 35.546 6.39243 35.8105 6.69396C37.2881 8.3788 38.5 10.095 38.5 12.302C38.5 13.9385 37.8208 15.5127 36.6041 16.677C35.3866 17.8419 33.7308 18.5 32 18.5C30.2692 18.5 28.6134 17.8419 27.3959 16.677C26.1792 15.5127 25.5 13.9385 25.5 12.302C25.5 9.677 27.2026 7.77093 29.0257 5.76299C29.0257 5.76298 29.0257 5.76297 29.0257 5.76296L29.0675 5.71698Z" stroke="#117CFB"/>
<path d="M51.0675 5.71698C52.2354 4.43099 53.4239 3.12229 54 1.60717C54.3553 2.54171 54.9403 3.39066 55.5954 4.19247C56.0262 4.71976 56.5102 5.25244 56.9895 5.77998C57.2686 6.08707 57.546 6.39243 57.8105 6.69396C59.2881 8.3788 60.5 10.095 60.5 12.302C60.5 13.9385 59.8208 15.5127 58.6041 16.677C57.3866 17.8419 55.7308 18.5 54 18.5C52.2692 18.5 50.6134 17.8419 49.3959 16.677C48.1792 15.5127 47.5 13.9385 47.5 12.302C47.5 9.677 49.2026 7.77093 51.0257 5.76299C51.0257 5.76298 51.0257 5.76297 51.0257 5.76296L51.0675 5.71698Z" stroke="#117CFB"/>
<path d="M73.0675 5.71698C74.2354 4.43099 75.4239 3.12229 76 1.60717C76.3553 2.54171 76.9403 3.39066 77.5954 4.19247C78.0262 4.71976 78.5102 5.25244 78.9895 5.77998C79.2686 6.08707 79.546 6.39243 79.8105 6.69396C81.2881 8.3788 82.5 10.095 82.5 12.302C82.5 13.9385 81.8208 15.5127 80.6041 16.677C79.3866 17.8419 77.7308 18.5 76 18.5C74.2692 18.5 72.6134 17.8419 71.3959 16.677C70.1792 15.5127 69.5 13.9385 69.5 12.302C69.5 9.677 71.2026 7.77093 73.0257 5.76299C73.0257 5.76298 73.0257 5.76297 73.0257 5.76296L73.0675 5.71698Z" stroke="#117CFB"/>
<path d="M95.0675 5.71698C96.2354 4.43099 97.4239 3.12229 98 1.60717C98.3553 2.54171 98.9403 3.39066 99.5954 4.19247C100.026 4.71976 100.51 5.25244 100.99 5.77998C101.269 6.08707 101.546 6.39243 101.81 6.69396C103.288 8.3788 104.5 10.095 104.5 12.302C104.5 13.9385 103.821 15.5127 102.604 16.677C101.387 17.8419 99.7308 18.5 98 18.5C96.2692 18.5 94.6134 17.8419 93.3959 16.677C92.1792 15.5127 91.5 13.9385 91.5 12.302C91.5 9.677 93.2026 7.77093 95.0257 5.76299C95.0257 5.76298 95.0257 5.76297 95.0257 5.76296L95.0675 5.71698Z" stroke="#117CFB"/>
</svg>
